HIERARCHY
ROOT Hips
{
	OFFSET 0.000000 0.000000 0.000000 
	CHANNELS 6 Xposition Yposition Zposition Yrotation Zrotation Xrotation 
	JOINT Lumbar
	{
		OFFSET 0.000000 0.000000 0.000000 
		CHANNELS 3 Zrotation Xrotation Yrotation
		JOINT Neck
		{
			OFFSET 0.000000 0.445665 0.000000 
			CHANNELS 3 Zrotation Xrotation Yrotation
			End Site
			{
				OFFSET 0.000000 0.227535 0.000000 
			}
		}
		JOINT RightShoulder
		{
			OFFSET 0.019635 0.377685 0.194865 
			CHANNELS 3 Zrotation Xrotation Yrotation
			JOINT RightElbow
			{
				OFFSET 0.000000 -0.243375 0.000000 
				CHANNELS 2 Zrotation Yrotation
				JOINT RightWrist
				{
					OFFSET 0.000000 -0.264825 0.000000 
					CHANNELS 2 Zrotation Xrotation
					End Site
					{
						OFFSET 0.006600 -0.176220 0.000990 
					}
				}
			}
		}
		JOINT LeftShoulder
		{
			OFFSET 0.019635 0.377685 -0.194865 
			CHANNELS 3 Zrotation Xrotation Yrotation
			JOINT LeftElbow
			{
				OFFSET 0.000000 -0.243375 0.000000 
				CHANNELS 2 Zrotation Yrotation
				JOINT LeftWrist
				{
					OFFSET 0.000000 -0.264825 0.000000 
					CHANNELS 2 Zrotation Xrotation
					End Site
					{
						OFFSET 0.006600 -0.176220 -0.000990 
					}
				}
			}
		}
	}
	JOINT RightHip
	{
		OFFSET 0.052140 -0.069960 0.075570 
		CHANNELS 3 Zrotation Xrotation Yrotation
		JOINT RightKnee
		{
			OFFSET 0.000000 -0.402270 0.000000 
			CHANNELS 1 Zrotation
			JOINT RightAnkle
			{
				OFFSET 0.000000 -0.404085 0.000000 
				CHANNELS 3 Zrotation Xrotation Yrotation
				End Site
				{
					OFFSET 0.204105 -0.089430 0.008415 
				}
			}
		}
	}
	JOINT LeftHip
	{
		OFFSET 0.052140 -0.069960 -0.075570 
		CHANNELS 3 Zrotation Xrotation Yrotation
		JOINT LeftKnee
		{
			OFFSET 0.000000 -0.402270 0.000000 
			CHANNELS 1 Zrotation
			JOINT LeftAnkle
			{
				OFFSET 0.000000 -0.404085 0.000000 
				CHANNELS 3 Zrotation Xrotation Yrotation
				End Site
				{
					OFFSET 0.204105 -0.089430 -0.008415 
				}
			}
		}
	}
}
MOTION
Frames: 24
Frame Time: 0.02
0.56467 -0.1586 -0.40846 750.9453 -8.83093 -5.7341 22.52402 0.3633 -5.21951 -4.76053 -1.99269 -0.83079 169.88198 -171.02778 -90.01166 137.62446 151.65245 -74.66925 -15.06389 169.88196 148.55974 90.01164 84.59857 -68.5845 -79.69812 22.97169 87.71669 -10.85754 -4.86897 -81.71957 -9.34741 -0.29006 -0.79149 89.34569 11.15015 0.65043 -77.24679 -10.37599 1.53927 1.52865
0.56432 -0.1589 -0.40812 750.87329 -8.83614 -5.69143 22.49678 0.30266 -4.94065 -5.03899 -1.62579 -0.83079 169.88195 -171.02788 -90.01163 137.62445 151.84782 -74.52242 -15.09337 169.88196 148.89553 90.01164 81.71951 -68.5951 -79.69816 22.97224 87.67745 -10.76008 -4.67548 -81.64455 -9.25506 -0.2835 -0.79023 89.3816 11.26921 0.70648 -77.45623 -10.15767 1.62486 1.59466
0.56394 -0.15938 -0.4077 750.78311 -8.82241 -5.65293 22.44705 0.25079 -4.54938 -5.36909 -1.19669 -0.83079 169.88192 -171.02786 -90.01158 137.62444 151.79887 -74.50018 -15.10862 169.88197 149.33266 90.01165 79.2633 -68.57634 -79.69823 22.97314 87.58011 -10.53621 -4.55702 -81.57772 -9.07137 -0.35823 -0.83181 89.46636 11.42224 0.90808 -77.80778 -9.91096 1.80038 1.71208
0.56358 -0.15977 -0.40734 750.70513 -8.81299 -5.61346 22.40467 0.19824 -4.21377 -5.67381 -0.7996 -0.83079 169.8819 -171.0278 -90.01155 137.62443 151.85201 -74.42379 -15.13336 169.88197 149.72081 90.01165 76.67428 -68.57307 -79.69829 22.97385 87.5073 -10.37344 -4.39615 -81.51627 -8.92481 -0.40219 -0.85694 89.52075 11.561 1.04403 -78.09214 -9.67515 1.9401 1.80751
0.56318 -0.16019 -0.4069 750.61169 -8.82026 -5.57033 22.37321 0.13188 -3.85861 -5.99125 -0.38619 -0.83079 169.88186 -171.02779 -90.0115 137.62442 151.90034 -74.33739 -15.16051 169.88198 150.12722 90.01166 73.8334 -68.56187 -79.69836 22.97468 87.44053 -10.19605 -4.26775 -81.4144 -8.79652 -0.42 -0.86925 89.60538 11.69407 1.17809 -78.38368 -9.44565 2.06017 1.89831
0.56286 -0.16058 -0.4066 750.54575 -8.78887 -5.53574 22.31418 0.09624 -3.5171 -6.29277 0.00744 -0.83079 169.88184 -171.02776 -90.01148 137.62441 151.9158 -74.30007 -15.17361 169.88198 150.51876 90.01167 71.61558 -68.55891 -79.69841 22.97534 87.34793 -10.02002 -4.09278 -81.39968 -8.60923 -0.51103 -0.91821 89.64036 11.84624 1.34967 -78.69573 -9.19743 2.24084 2.01004
0.56277 -0.16087 -0.40672 750.55933 -8.65496 -5.52331 22.18396 0.14402 -3.24695 -6.53598 0.33565 -0.83079 169.88186 -171.02778 -90.0115 137.62442 151.91534 -74.38296 -15.14904 169.88199 150.82654 90.01167 71.04717 -68.5972 -79.69842 22.97546 87.20075 -9.86312 -3.74302 -81.62067 -8.27325 -0.79164 -1.06112 89.52519 12.05667 1.60057 -79.02643 -8.90031 2.5796 2.17292
0.56276 -0.16112 -0.40699 750.60114 -8.48323 -5.51936 22.02712 0.22222 -2.99359 -6.76064 0.64088 -0.83079 169.88189 -171.02781 -90.01154 137.62443 151.89374 -74.50842 -15.10906 169.88198 151.11741 90.01167 71.08672 -68.64302 -79.69841 22.97539 87.0296 -9.71443 -3.34896 -81.92975 -7.88255 -1.1418 -1.23882 89.3593 12.28305 1.88232 -79.37384 -8.58646 2.97381 2.35392
0.56272 -0.16137 -0.40718 750.6305 -8.32906 -5.51172 21.88291 0.28604 -2.72837 -6.9947 0.95386 -0.83079 169.88191 -171.02783 -90.01157 137.62443 151.87813 -74.60433 -15.07546 169.88198 151.42762 90.01167 70.82601 -68.67754 -79.69841 22.9754 86.86785 -9.572 -2.99348 -82.20089 -7.5221 -1.45558 -1.39862 89.2177 12.49312 2.14251 -79.71636 -8.28313 3.33418 2.52262
0.56267 -0.16167 -0.4074 750.6579 -8.17194 -5.50351 21.73535 0.35265 -2.47623 -7.22811 1.28076 -0.83079 169.88193 -171.02785 -90.0116 137.62444 151.86818 -74.74691 -15.04426 169.88199 151.69531 90.01167 70.67713 -68.74293 -79.69842 22.97546 86.70961 -9.38343 -2.56288 -82.46408 -7.13556 -1.79269 -1.56902 89.07184 12.74185 2.43917 -80.05287 -7.96604 3.73411 2.71023
0.56265 -0.16187 -0.40761 750.69597 -8.0131 -5.49848 21.58913 0.42039 -2.20338 -7.45583 1.57194 -0.83079 169.88196 -171.02787 -90.01163 137.62445 151.84511 -74.80172 -15.00458 169.88198 152.04244 90.01167 70.43928 -68.74793 -79.69841 22.97535 86.54004 -9.29403 -2.27706 -82.76387 -6.79177 -2.09623 -1.72469 88.923 12.91434 2.66583 -80.40338 -7.67454 4.06374 2.86218
0.56273 -0.16181 -0.40776 750.75967 -7.85145 -5.49969 21.44972 0.48528 -1.86089 -7.68862 1.77354 -0.83079 169.88196 -171.02788 -90.01163 137.62445 151.79124 -74.59487 -14.94423 169.88198 152.64449 90.01166 69.76194 -68.5693 -79.69836 22.97477 86.33758 -9.48111 -2.40269 -83.14935 -6.57815 -2.29327 -1.83416 88.77132 12.86413 2.68636 -80.79313 -7.45372 4.18407 2.90999
0.56284 -0.16166 -0.40789 750.83273 -7.69077 -5.50386 21.31323 0.54993 -1.49931 -7.91311 1.9389 -0.83079 169.88196 -171.02788 -90.01163 137.62445 151.72622 -74.29927 -14.87608 169.88198 153.32065 90.01165 68.98041 -68.33256 -79.6983 22.97402 86.12623 -9.76721 -2.6746 -83.56707 -6.41026 -2.4531 -1.92687 88.6194 12.73793 2.63563 -81.19455 -7.26024 4.23154 2.92124
0.56294 -0.16155 -0.40802 750.89942 -7.53462 -5.50696 21.17783 0.61369 -1.15228 -8.1303 2.11849 -0.83079 169.88196 -171.02788 -90.01163 137.62445 151.66754 -74.04943 -14.81221 169.88197 153.94175 90.01165 68.27399 -68.13242 -79.69825 22.97336 85.92418 -10.00586 -2.87917 -83.96644 -6.22252 -2.62747 -2.02509 88.47209 12.65189 2.62025 -81.58719 -7.05697 4.31303 2.94981
0.56304 -0.16142 -0.4082 750.97563 -7.35643 -5.50924 21.03165 0.68279 -0.78017 -8.39315 2.30737 -0.83079 169.88196 -171.02788 -90.01163 137.62445 151.60262 -73.77813 -14.74478 169.88197 154.65264 90.01164 67.47174 -67.88956 -79.69819 22.97261 85.69911 -10.2561 -3.08763 -84.38604 -6.02828 -2.81439 -2.13339 88.30439 12.54304 2.5935 -81.99625 -6.84164 4.39286 2.97618
0.56314 -0.16131 -0.40826 751.03437 -7.22449 -5.51379 20.90852 0.74025 -0.45655 -8.55976 2.46783 -0.83079 169.88196 -171.02788 -90.01163 137.62445 151.54832 -73.53002 -14.68302 169.88196 155.19424 90.01163 66.8365 -67.72173 -79.69815 22.97202 85.52012 -10.50432 -3.3211 -84.76806 -5.85989 -2.96532 -2.21633 88.17932 12.46298 2.57311 -82.37229 -6.65854 4.45792 2.99809
0.56323 -0.16124 -0.40797 751.03806 -7.22347 -5.52405 20.85234 0.76602 -0.26321 -8.45748 2.56479 -0.83079 169.88196 -171.02788 -90.01163 137.62445 151.52658 -73.36599 -14.63939 169.88196 155.25073 90.01163 66.68305 -67.77567 -79.69814 22.97193 85.47147 -10.73413 -3.60708 -85.05471 -5.74616 -3.02635 -2.23228 88.17598 12.48492 2.58665 -82.66487 -6.55497 4.50099 3.01733
0.56332 -0.16119 -0.40756 751.02447 -7.26852 -5.53649 20.81873 0.77994 -0.1209 -8.25973 2.63313 -0.83079 169.88196 -171.02788 -90.01163 137.62445 151.51576 -73.22834 -14.60158 169.88196 155.13441 90.01163 66.69866 -67.90691 -79.69814 22.972 85.46946 -10.95646 -3.91007 -85.2989 -5.65825 -3.05195 -2.22327 88.21516 12.53767 2.60883 -82.9213 -6.48376 4.53114 3.03308
0.5634 -0.16113 -0.40722 751.02174 -7.29039 -5.54773 20.77218 0.79873 0.03956 -8.10909 2.71094 -0.83079 169.88196 -171.02788 -90.01163 137.62445 151.49998 -73.0796 -14.56098 169.88196 155.09674 90.01163 66.6375 -68.00261 -79.69814 22.97198 85.44561 -11.17455 -4.19251 -85.55149 -5.56232 -3.09324 -2.22624 88.2324 12.57366 2.62788 -83.1878 -6.39934 4.5664 3.04994
0.56351 -0.16107 -0.40684 751.00704 -7.32166 -5.55973 20.73673 0.81929 0.22243 -7.94221 2.80333 -0.83079 169.88196 -171.02788 -90.01163 137.62445 151.48456 -72.92441 -14.5212 169.88196 155.06051 90.01163 66.5746 -68.09846 -79.69814 22.97199 85.42412 -11.42781 -4.53302 -85.85149 -5.45196 -3.13526 -2.22611 88.26024 12.61856 2.64206 -83.48336 -6.30849 4.60279 3.06771
0.56356 -0.16102 -0.4065 751.01257 -7.34437 -5.57089 20.6839 0.83386 0.34569 -7.78684 2.85786 -0.83079 169.88196 -171.02788 -90.01163 137.62445 151.47017 -72.78955 -14.48058 169.88196 154.98009 90.01163 66.55456 -68.21258 -79.69815 22.972 85.40896 -11.60543 -4.75611 -86.04191 -5.37761 -3.16753 -2.22654 88.27661 12.65332 2.66814 -83.70742 -6.23971 4.63418 3.08301
0.56345 -0.16097 -0.40628 751.08201 -7.3317 -5.57695 20.57404 0.83046 0.32151 -7.68468 2.82509 -0.83079 169.88196 -171.02788 -90.01163 137.62445 151.46414 -72.70926 -14.44165 169.88196 154.81274 90.01163 66.63005 -68.36296 -79.69814 22.97198 85.3994 -11.5696 -4.63819 -85.94216 -5.39286 -3.18377 -2.23623 88.2465 12.65196 2.73599 -83.76165 -6.21261 4.65961 3.09431
0.56328 -0.16093 -0.40612 751.17162 -7.30898 -5.58243 20.44671 0.82219 0.23817 -7.59789 2.75353 -0.83079 169.88196 -171.02788 -90.01163 137.62445 151.45728 -72.64808 -14.40071 169.88196 154.60797 90.01163 66.73981 -68.5284 -79.69814 22.97198 85.39472 -11.4586 -4.40314 -85.73287 -5.44407 -3.19111 -2.24712 88.2041 12.63986 2.81401 -83.74157 -6.20877 4.67988 3.10304
0.56314 -0.16089 -0.40594 751.24948 -7.29115 -5.58971 20.32949 0.81905 0.17873 -7.5052 2.69313 -0.83079 169.88196 -171.02788 -90.01163 137.62445 151.44547 -72.57538 -14.35719 169.88196 154.42453 90.01163 66.82226 -68.68423 -79.69814 22.97199 85.38814 -11.38572 -4.22924 -85.57244 -5.48068 -3.20132 -2.25652 88.17032 12.63337 2.88023 -83.74316 -6.20132 4.69991 3.11185
